<?xml version="1.0" encoding="utf-8"?>
<!-- Generator: Adobe Illustrator 28.0.0, SVG Export Plug-In . SVG Version: 6.00 Build 0)  -->
<svg version="1.1" id="Livello_1" xmlns="http://www.w3.org/2000/svg" xmlns:xlink="http://www.w3.org/1999/xlink" x="0px" y="0px"
	 viewBox="0 0 1920 1080" xml:space="preserve">
<g>
	<path class="st0" d="M55.3,652.8V483.2l1.3-1.3h87l1.3,1.3v25.6l-1.3,1.3h-29.3c-18.7,0-28.6,10.4-28.6,28.7v114l-1.3,1.3H56.7
		L55.3,652.8z"/>
	<path class="st0" d="M147.9,568.2c0-53.3,31-91,79.6-91c43,0,75,29,75,84v19.3l-1.3,1.3h-98.6c-12,0-19,2.7-19,14.7
		c0,18,15.7,35.3,44.3,35.3c23.3,0,35-12.3,39-23l1.3-1.3h28l1.3,1.3c-2.7,24-26.7,50.3-69,50.3
		C177.9,659.1,147.9,621.5,147.9,568.2z M202.9,557.5h47.3c12.3,0,18.3-4.3,18.3-16.7c0-19.7-17.6-36.7-42-36.7
		c-24,0-42.7,17-42.7,36.7C183.9,553.2,190.6,557.5,202.9,557.5z"/>
	<path class="st0" d="M322.8,568.2c0-53.3,30.7-91.3,82.3-91.3c46.7,0,73.6,30.3,75,67l-1.3,1.3h-29.3l-1.3-1.3
		c-1.3-21.6-19.3-37-43-37c-29.3,0-50.7,22.7-50.7,61.3c0,38.3,21.3,61,50.7,61c24,0,41.6-15.3,43-37l1.3-1.3h29.3l1.3,1.3
		c-1.3,36.6-28.3,67-75,67C353.4,659.1,322.8,621.5,322.8,568.2z"/>
	<path class="st0" d="M501,568.2c0-53,30.7-91,82.3-91c51.3,0,82,37.7,82,91c0,53.3-30.7,91-82,91C531.6,659.1,501,621.5,501,568.2z
		 M583.3,629.1c29.3,0,50.7-23,50.7-61c0-38.7-21.3-61.3-50.7-61.3c-29.7,0-51,22.7-51,61.3C532.3,606.2,553.6,629.1,583.3,629.1z"
		/>
	<path class="st0" d="M697.2,652.8V483.2l1.3-1.3h87l1.3,1.3v25.6l-1.3,1.3h-29.3c-18.7,0-28.6,10.4-28.6,28.7v114l-1.3,1.3h-27.7
		L697.2,652.8z"/>
	<path class="st0" d="M789.8,567.8c0-48.3,26.7-86,80.6-86h46l1.3-1.3v-58.3l1.3-1.3h27.7l1.3,1.3v230.6l-1.3,1.3h-76.3
		C816.4,654.1,789.8,616.1,789.8,567.8z M870.4,624.1c30,0,48.6-22.3,48.6-56c0-34-18.7-56.3-48.6-56.3c-30.3,0-49,22.3-49,56.3
		C821.4,601.8,840.1,624.1,870.4,624.1z"/>
	<path class="st0" d="M980,601.8l1.3-1.3h29l1.3,1.3c1,18.7,17,30.3,37,30.3c18.7,0,33.3-10.3,33.3-25.3c0-38.3-98.3-6.3-98.3-72.3
		c0-33.7,26.3-57.6,65-57.6c33.3,0,61.6,18,62.7,52.6l-1.3,1.3h-29l-1.3-1.3c-0.3-15-13.7-25.6-32.3-25.6c-18.3,0-32.7,10-32.7,26.7
		c0,43.3,98.6,8,98.6,73c0,32.7-25.6,55.7-66.3,55.7C1005.9,659.1,980.3,635.5,980,601.8z"/>
	<path class="st0" d="M1162.5,652.8V535.2c0-16.3-8.7-25.3-25-25.3h-11.7l-1.3-1.3v-25l1.3-1.3h35.3l1.3-1.3v-48.6l1.3-1.3h28
		l1.3,1.3v48.6l1.3,1.3h41.3l1.3,1.3v25l-1.3,1.3h-17.3c-16.3,0-25.3,9-25.3,25.3v66.3c0,16.3,9,24.7,25.3,24.7h17.3l1.3,1.3v25.3
		l-1.3,1.3h-72L1162.5,652.8z"/>
	<path class="st0" d="M1404.7,483.2v169.6l-1.3,1.3h-136.6l-1.3-1.3V483.2l1.3-1.3h28l1.3,1.3v113.9c0,18.4,10,28.7,28.3,28.7h21.3
		c18.7,0,28.6-10.3,28.6-28.7V483.2l1.3-1.3h27.7L1404.7,483.2z"/>
	<path class="st0" d="M1436.6,567.8c0-48.3,26.7-86,80.6-86h46l1.3-1.3v-58.3l1.3-1.3h27.7l1.3,1.3v230.6l-1.3,1.3h-76.3
		C1463.3,654.1,1436.6,616.1,1436.6,567.8z M1517.2,624.1c30,0,48.6-22.3,48.6-56c0-34-18.7-56.3-48.6-56.3c-30.3,0-49,22.3-49,56.3
		C1468.3,601.8,1486.9,624.1,1517.2,624.1z"/>
	<path class="st0" d="M1637.1,422.2l1.3-1.3h29.6l1.3,1.3v37.3l-1.3,1.3h-29.6l-1.3-1.3V422.2z M1638.1,652.8V483.2l1.3-1.3h27.7
		l1.3,1.3v169.6l-1.3,1.3h-27.7L1638.1,652.8z"/>
	<path class="st0" d="M1700.4,568.2c0-53,30.7-91,82.3-91c51.3,0,82,37.7,82,91c0,53.3-30.7,91-82,91
		C1731,659.1,1700.4,621.5,1700.4,568.2z M1782.7,629.1c29.3,0,50.7-23,50.7-61c0-38.7-21.3-61.3-50.7-61.3c-29.7,0-51,22.7-51,61.3
		C1731.7,606.2,1753,629.1,1782.7,629.1z"/>
</g>
</svg>
