<svg width="295" height="85" viewBox="0 0 295 85" fill="none" xmlns="http://www.w3.org/2000/svg">
<g clip-path="url(#clip0_2116_3575)">
<path d="M14.13 25.7701C-1.01004 16.0001 -4.23004 12.4301 14.13 25.7701Z" fill="white"/>
<path d="M34.5301 52.05C30.3201 64.23 28.4101 66.61 34.5301 52.05Z" fill="white"/>
<path d="M14.21 58.0901C-2.71004 68.2301 -6.65004 72.4501 14.21 58.0901Z" fill="white"/>
<path d="M19.8099 16.8099C4.30992 -6.16012 2.49992 -5.04012 19.8099 16.8099Z" fill="white"/>
<path d="M57.5801 67.77C75.5601 89.42 73.7201 90.6 57.5801 67.77Z" fill="white"/>
<path d="M42.4099 55.03C46.0299 65.37 44.9399 63.89 42.4099 55.03Z" fill="white"/>
<path d="M18.8599 67.6399C2.49992 90.3599 0.719917 89.1999 18.8599 67.6399Z" fill="white"/>
<path d="M57.3 17.1501C74.98 -4.41993 73.23 -5.52993 57.3 17.1501Z" fill="white"/>
<path d="M62.46 25.8799C81.59 12.1099 78.25 15.7399 62.46 25.8799Z" fill="white"/>
<path d="M42.0299 43.5299C41.8899 43.3699 41.7599 43.2199 41.6299 43.0599C41.9299 42.9099 42.2199 42.7699 42.5199 42.6199C42.1599 42.4199 41.7999 42.2299 41.4499 42.0299C42.0899 41.3299 42.7299 40.6299 43.3899 39.9099C51.3099 33.9899 57.6199 29.3699 62.4799 25.8699C58.4799 28.4399 53.6899 31.4199 48.2699 34.6399C49.0999 33.7499 49.9399 32.8399 50.7999 31.9299C48.3999 33.6899 46.0899 35.3699 43.8799 36.9799C49.0899 29.0299 53.5899 22.4399 57.3099 17.1299C53.5799 21.6899 48.9799 27.1499 43.4599 33.4999L42.8799 34.1599C65.0099 -9.0301 62.1299 -4.0201 42.7999 34.2599L41.8199 35.3799C42.0399 34.8999 42.2599 34.4199 42.4799 33.9199C42.1599 34.5199 41.8499 35.1199 41.5299 35.7099L41.2999 35.9699C42.5899 33.5499 43.9299 31.0199 45.3399 28.3799C44.0299 30.4199 42.7499 32.4099 41.4999 34.3299C41.8399 33.2899 42.1599 32.2999 42.4799 31.3699C42.0199 32.5399 41.5099 33.7999 40.9499 35.1799C40.1799 36.3599 38.4599 38.9899 38.3799 39.1099C38.0099 38.5399 37.6399 37.9599 37.2699 37.3799C36.2099 34.0999 35.3499 31.3699 34.6699 29.1499C35.1099 30.9899 35.5999 33.1499 36.1199 35.5799C34.6299 33.2399 33.0999 30.8099 31.5199 28.2899C32.7099 30.6199 33.8599 32.8699 34.9699 35.0399C35.0199 35.1699 35.0699 35.2899 35.1199 35.4199C34.8199 35.0699 34.5299 34.7199 34.2299 34.3699C33.5199 32.8799 32.8299 31.4399 32.1699 30.0599C32.7899 31.3899 33.4299 32.7699 34.0899 34.1999C28.3699 27.4099 23.6299 21.5999 19.8199 16.7799C23.4599 22.1799 27.8599 28.8999 32.9499 36.9999C30.6999 35.3799 28.3499 33.6799 25.8999 31.9099C26.7099 32.7799 27.4999 33.6399 28.2799 34.4799C22.8599 31.2699 18.0899 28.2899 14.1299 25.7299C18.9799 29.2599 25.3299 33.9599 33.3699 40.0399C33.9999 40.7299 34.6199 41.4199 35.2299 42.0899C34.8199 42.3199 34.4099 42.5399 33.9999 42.7699C34.2999 42.9099 34.5899 43.0499 34.8899 43.1899C34.6799 43.4199 34.4799 43.6499 34.2699 43.8799C25.9599 49.8499 19.3299 54.5099 14.1999 58.0399C18.4599 55.4899 23.5399 52.5599 29.2599 49.4599C28.2499 50.5799 27.2299 51.7099 26.1799 52.8599C28.3099 51.2399 30.3499 49.6899 32.3299 48.1899C27.1199 55.9399 22.6099 62.3899 18.8599 67.5999C22.1899 63.6399 26.1999 58.9899 30.9099 53.6799L33.3099 50.9899C18.7499 79.1399 18.4599 79.6899 18.4599 79.6999C18.4599 79.6899 18.7799 79.1299 34.9399 49.5999C34.9399 49.6099 34.9299 49.6299 34.9199 49.6399C33.8299 51.7699 32.6899 53.9699 31.5199 56.2599C32.6799 54.3999 33.8199 52.5899 34.9399 50.8299C34.7999 51.2299 34.6699 51.6299 34.5399 52.0099C34.7599 51.4899 34.9899 50.9499 35.2299 50.3899C36.1999 48.8599 37.0099 47.4299 37.9399 45.9799C37.9899 47.3599 37.9999 47.7399 38.0099 47.8499C38.0099 47.7299 38.0099 47.2999 38.0899 45.7599C38.0999 45.8199 38.1299 46.0199 38.1399 46.0699L38.2799 45.5999C38.8799 46.5799 39.4899 47.5799 40.1099 48.5899C41.0299 51.0899 41.7899 53.2199 42.4199 54.9999C42.0199 53.5999 41.5799 52.0099 41.1299 50.2599C42.3399 52.2499 43.5799 54.3099 44.8399 56.4199C43.5199 53.6899 42.2699 51.0799 41.0599 48.5799C41.5899 49.1699 42.1099 49.7599 42.6199 50.3399L42.8799 50.6399C61.8299 88.4999 64.9099 93.8399 42.9799 50.7599L43.1899 50.9999C48.9399 57.5099 53.7199 63.0999 57.5799 67.7499C53.9299 62.5899 49.5499 56.1899 44.4999 48.5299C46.3799 49.9699 48.3199 51.4599 50.3399 53.0199C49.2199 51.7499 48.1299 50.4999 47.0499 49.2799C52.9899 52.3699 58.2499 55.3099 62.6499 57.8699C57.3999 54.3099 50.5899 49.5899 42.0399 43.5099" fill="white"/>
<path d="M62.6399 57.8899C83.5899 72.0899 79.6899 67.8299 62.6399 57.8899Z" fill="white"/>
<path d="M34.67 29.18C32.4 19.71 31.37 18.32 34.67 29.18Z" fill="white"/>
<path d="M32.16 30.0901C16.64 -3.31992 14.2 -7.46992 32.16 30.0901Z" fill="white"/>
<path d="M42.47 31.39C48.31 16.71 46.69 18.81 42.47 31.39Z" fill="white"/>
<path d="M115.3 53.41V36.58L115.43 36.45H124.06L124.19 36.58V39.1199L124.06 39.25H121.15C119.29 39.25 118.31 40.2799 118.31 42.0999V53.41L118.18 53.54H115.43L115.29 53.41H115.3Z" fill="white"/>
<path d="M124.48 45.02C124.48 39.73 127.56 35.99 132.38 35.99C136.65 35.99 139.82 38.87 139.82 44.32V46.24L139.69 46.37H129.9C128.71 46.37 128.02 46.64 128.02 47.83C128.02 49.62 129.58 51.33 132.42 51.33C134.73 51.33 135.89 50.11 136.29 49.05L136.42 48.92H139.2L139.33 49.05C139.06 51.43 136.68 54.04 132.48 54.04C127.46 54.04 124.48 50.31 124.48 45.02ZM129.94 43.96H134.63C135.85 43.96 136.45 43.53 136.45 42.3C136.45 40.35 134.7 38.66 132.28 38.66C129.86 38.66 128.04 40.35 128.04 42.3C128.05 43.53 128.71 43.96 129.94 43.96Z" fill="white"/>
<path d="M141.84 45.02C141.84 39.73 144.89 35.96 150.01 35.96C154.64 35.96 157.31 38.97 157.45 42.61L157.32 42.74H154.41L154.28 42.61C154.15 40.47 152.36 38.94 150.01 38.94C147.1 38.94 144.98 41.19 144.98 45.02C144.98 48.85 147.09 51.07 150.01 51.07C152.39 51.07 154.14 49.55 154.28 47.4L154.41 47.27H157.32L157.45 47.4C157.32 51.03 154.64 54.05 150.01 54.05C144.88 54.05 141.84 50.31 141.84 45.02Z" fill="white"/>
<path d="M159.52 45.02C159.52 39.76 162.57 35.99 167.69 35.99C172.81 35.99 175.83 39.73 175.83 45.02C175.83 50.31 172.78 54.05 167.69 54.05C162.56 54.05 159.52 50.31 159.52 45.02ZM167.69 51.06C170.6 51.06 172.72 48.78 172.72 45.01C172.72 41.24 170.61 38.93 167.69 38.93C164.77 38.93 162.63 41.18 162.63 45.01C162.63 48.84 164.74 51.06 167.69 51.06Z" fill="white"/>
<path d="M178.99 53.41V36.58L179.12 36.45H187.75L187.88 36.58V39.1199L187.75 39.25H184.84C182.98 39.25 182 40.2799 182 42.0999V53.41L181.87 53.54H179.12L178.98 53.41H178.99Z" fill="white"/>
<path d="M188.18 44.9799C188.18 40.1899 190.83 36.4499 196.18 36.4499H200.74L200.87 36.3199V30.5399L201 30.4099H203.75L203.88 30.5399V53.4199L203.75 53.5499H196.18C190.82 53.5499 188.18 49.7799 188.18 44.9899M196.18 50.5799C199.16 50.5799 201 48.3699 201 45.0199C201 41.6699 199.14 39.4299 196.18 39.4299C193.22 39.4299 191.32 41.6399 191.32 45.0199C191.32 48.3999 193.18 50.5799 196.18 50.5799Z" fill="white"/>
<path d="M207.06 48.35L207.19 48.22H210.07L210.2 48.35C210.3 50.21 211.89 51.36 213.87 51.36C215.73 51.36 217.18 50.34 217.18 48.85C217.18 45.05 207.42 48.23 207.42 41.68C207.42 38.34 210.03 35.96 213.87 35.96C217.18 35.96 219.98 37.75 220.09 41.18L219.96 41.31H217.08L216.95 41.18C216.92 39.69 215.59 38.64 213.74 38.64C211.89 38.64 210.5 39.63 210.5 41.29C210.5 45.59 220.29 42.08 220.29 48.53C220.29 51.78 217.75 54.06 213.71 54.06C209.63 54.04 207.09 51.7 207.06 48.35Z" fill="white"/>
<path d="M225.17 53.4099V41.7399C225.17 40.1199 224.31 39.2299 222.69 39.2299H221.53L221.4 39.0999V36.6199L221.53 36.4899H225.03L225.16 36.3599V31.5399L225.29 31.4099H228.07L228.2 31.5399V36.3599L228.33 36.4899H232.43L232.56 36.6199V39.0999L232.43 39.2299H230.71C229.09 39.2299 228.2 40.1199 228.2 41.7399V48.3199C228.2 49.9399 229.09 50.7699 230.71 50.7699H232.43L232.56 50.8999V53.4099L232.43 53.5399H225.28L225.17 53.4099Z" fill="white"/>
<path d="M249.2 36.58V53.41L249.07 53.54H235.52L235.39 53.41V36.58L235.52 36.45H238.3L238.43 36.58V47.88C238.43 49.71 239.42 50.7299 241.24 50.7299H243.35C245.21 50.7299 246.19 49.71 246.19 47.88V36.58L246.32 36.45H249.07L249.21 36.58H249.2Z" fill="white"/>
<path d="M252.37 44.9799C252.37 40.1899 255.02 36.4499 260.37 36.4499H264.93L265.06 36.3199V30.5399L265.19 30.4099H267.94L268.07 30.5399V53.4199L267.94 53.5499H260.37C255.02 53.5499 252.37 49.7799 252.37 44.9899M260.37 50.5799C263.35 50.5799 265.19 48.3699 265.19 45.0199C265.19 41.6699 263.33 39.4299 260.37 39.4299C257.41 39.4299 255.51 41.6399 255.51 45.0199C255.52 48.3599 257.37 50.5799 260.37 50.5799Z" fill="white"/>
<path d="M272.26 30.5299L272.39 30.3999H275.33L275.46 30.5299V34.2299L275.33 34.3599H272.39L272.26 34.2299V30.5299ZM272.36 53.4099V36.5799L272.49 36.4499H275.24L275.37 36.5799V53.4099L275.24 53.5399H272.49L272.36 53.4099Z" fill="white"/>
<path d="M278.54 45.02C278.54 39.76 281.59 35.99 286.71 35.99C291.83 35.99 294.85 39.73 294.85 45.02C294.85 50.31 291.8 54.05 286.71 54.05C281.58 54.05 278.54 50.31 278.54 45.02ZM286.71 51.06C289.62 51.06 291.74 48.78 291.74 45.01C291.74 41.24 289.63 38.93 286.71 38.93C283.79 38.93 281.65 41.18 281.65 45.01C281.65 48.84 283.76 51.06 286.71 51.06Z" fill="white"/>
</g>
<defs>
<clipPath id="clip0_2116_3575">
<rect width="294.85" height="84.45" fill="white"/>
</clipPath>
</defs>
</svg>
