<svg viewBox="0 0 3737 480" fill="none" xmlns="http://www.w3.org/2000/svg">
<path d="M0 109.719H75.8101V179.3H77.2197C79.5797 169.56 84.1898 160.06 91.0298 150.78C97.8698 141.5 106.15 133.04 115.84 125.38C125.51 117.73 136.26 111.589 148.08 106.949C159.88 102.309 171.92 99.9795 184.21 99.9795C193.66 99.9795 200.16 100.22 203.7 100.67C207.24 101.14 210.89 101.609 214.68 102.069V178.609C209.01 177.689 203.22 176.87 197.32 176.17C191.41 175.47 185.63 175.13 179.97 175.13C166.26 175.13 153.4 177.8 141.35 183.13C129.31 188.47 118.8 196.35 109.83 206.78C100.85 217.22 93.7698 230.1 88.5698 245.41C83.3698 260.71 80.77 278.35 80.77 298.29V469.449H0V109.719Z" fill="white"/>
<path d="M281.07 310.11C281.07 324.02 283.06 337.48 287.08 350.46C291.08 363.46 297.1 374.81 305.12 384.55C313.14 394.3 323.28 402.06 335.55 407.86C347.82 413.67 362.44 416.56 379.43 416.56C403.01 416.56 422 411.58 436.38 401.59C450.77 391.62 461.5 376.67 468.58 356.72H545C540.75 376.2 533.43 393.59 523.06 408.9C512.68 424.21 500.18 437.08 485.57 447.52C470.94 457.96 454.55 465.85 436.38 471.18C418.22 476.51 399.24 479.18 379.43 479.18C350.65 479.18 325.17 474.53 303.01 465.27C280.83 455.99 262.08 442.99 246.76 426.3C231.42 409.59 219.87 389.67 212.09 366.46C204.3 343.27 200.41 317.76 200.41 289.92C200.41 264.42 204.54 240.17 212.79 217.21C221.04 194.25 232.83 174.07 248.18 156.67C263.5 139.27 282.02 125.48 303.71 115.27C325.41 105.08 349.94 99.9697 377.31 99.9697C406.07 99.9697 431.9 105.88 454.78 117.71C477.65 129.55 496.65 145.2 511.74 164.68C526.84 184.16 537.8 206.55 544.64 231.83C551.47 257.11 553.24 283.21 549.95 310.11H281.07ZM469.29 257.92C468.34 245.4 465.63 233.34 461.16 221.74C456.67 210.16 450.55 200.07 442.77 191.47C434.98 182.89 425.54 175.94 414.46 170.6C403.37 165.27 390.99 162.6 377.32 162.6C363.65 162.6 350.3 165.04 338.76 169.91C327.19 174.78 317.29 181.52 309.03 190.09C300.77 198.68 294.17 208.77 289.22 220.36C284.27 231.96 281.55 244.48 281.09 257.93H469.31L469.29 257.92Z" fill="white"/>
<path d="M830.979 230.09C827.669 207.83 818.59 191.01 803.7 179.64C788.82 168.28 770.06 162.6 747.38 162.6C736.99 162.6 725.88 164.34 714.09 167.82C702.27 171.3 691.42 177.8 681.5 187.3C671.58 196.82 663.309 210.04 656.689 226.96C650.069 243.9 646.77 266.05 646.77 293.41C646.77 308.26 648.54 323.1 652.08 337.94C655.62 352.78 661.29 366 669.08 377.6C676.88 389.19 686.91 398.59 699.2 405.77C711.49 412.97 726.35 416.55 743.85 416.55C767.47 416.55 786.94 409.37 802.3 394.98C817.64 380.61 827.21 360.42 830.99 334.45H911.76C904.21 381.3 886.13 417.13 857.56 441.94C828.98 466.76 791.07 479.17 743.85 479.17C715.04 479.17 689.65 474.41 667.68 464.91C645.71 455.4 627.17 442.41 612.06 425.94C596.93 409.48 585.49 389.88 577.7 367.14C569.9 344.42 566.01 319.83 566.01 293.39C566.01 266.95 569.78 241.21 577.35 217.54C584.9 193.89 596.24 173.36 611.36 155.97C626.48 138.57 645.239 124.9 667.689 114.92C690.109 104.95 716.45 99.96 746.68 99.96C767.94 99.96 788.14 102.63 807.27 107.96C826.4 113.3 843.4 121.31 858.28 131.97C873.16 142.65 885.31 156.09 894.77 172.33C904.22 188.57 909.89 207.82 911.77 230.08H831L830.979 230.09Z" fill="white"/>
<path d="M1326.94 109.12H1402.75V179.3H1404.16C1406.52 169.56 1411.13 160.06 1417.97 150.77C1424.81 141.5 1433.09 133.03 1442.78 125.37C1452.45 117.71 1463.2 111.57 1475.02 106.93C1486.82 102.3 1498.86 99.9795 1511.15 99.9795C1520.6 99.9795 1527.1 100.21 1530.64 100.67C1534.18 101.14 1537.83 101.609 1541.62 102.069V178.609C1535.95 177.689 1530.16 176.87 1524.26 176.16C1518.35 175.47 1512.57 175.12 1506.91 175.12C1493.2 175.12 1480.34 177.79 1468.29 183.12C1456.25 188.46 1445.74 196.34 1436.77 206.77C1427.79 217.21 1420.71 230.09 1415.51 245.4C1410.31 260.7 1407.71 278.33 1407.71 298.27V469.439H1326.94V109.109V109.12Z" fill="white"/>
<path d="M1897.43 469.44H1820.9V420.73H1819.48C1808.62 441.6 1792.79 456.57 1772.02 465.61C1751.23 474.66 1729.26 479.18 1706.13 479.18C1677.31 479.18 1652.15 474.2 1630.67 464.22C1609.17 454.25 1591.35 440.68 1577.18 423.52C1563.01 406.36 1552.37 386.06 1545.29 362.64C1538.21 339.21 1534.67 314.05 1534.67 287.15C1534.67 254.68 1539.15 226.61 1548.12 202.95C1557.09 179.3 1569.03 159.82 1583.89 144.51C1598.77 129.21 1615.78 117.96 1634.91 110.77C1654.05 103.58 1673.53 99.9797 1693.36 99.9797C1704.69 99.9797 1716.26 101.03 1728.08 103.11C1739.88 105.2 1751.22 108.57 1762.09 113.2C1772.94 117.85 1782.99 123.75 1792.19 130.94C1801.4 138.14 1809.07 146.6 1815.21 156.34H1816.63V0.00976562H1897.4V469.45L1897.43 469.44ZM1615.44 293.41C1615.44 308.71 1617.44 323.8 1621.46 338.64C1625.46 353.5 1631.61 366.71 1639.87 378.3C1648.14 389.89 1658.65 399.17 1671.41 406.13C1684.16 413.08 1699.27 416.56 1716.75 416.56C1734.23 416.56 1750.17 412.86 1763.16 405.43C1776.14 398.01 1786.78 388.27 1795.05 376.21C1803.31 364.15 1809.46 350.58 1813.47 335.5C1817.48 320.43 1819.49 305.01 1819.49 289.23C1819.49 249.34 1810.39 218.26 1792.21 195.99C1774.02 173.73 1749.34 162.59 1718.17 162.59C1699.27 162.59 1683.33 166.42 1670.34 174.07C1657.34 181.73 1646.72 191.71 1638.46 203.99C1630.19 216.29 1624.29 230.2 1620.74 245.74C1617.21 261.28 1615.44 277.16 1615.44 293.4" fill="white"/>
<path d="M1987.81 353.94C1990.16 377.14 1999.14 393.37 2014.73 402.65C2030.32 411.94 2048.98 416.56 2070.7 416.56C2078.25 416.56 2086.86 415.98 2096.56 414.82C2106.24 413.67 2115.34 411.46 2123.84 408.22C2132.34 404.97 2139.31 400.2 2144.74 393.95C2150.16 387.69 2152.65 379.47 2152.18 369.25C2151.7 359.05 2147.93 350.7 2140.84 344.2C2133.75 337.71 2124.66 332.49 2113.56 328.55C2102.45 324.62 2089.82 321.25 2075.65 318.46C2061.48 315.68 2047.06 312.67 2032.43 309.42C2017.3 306.18 2002.78 302.22 1988.86 297.58C1974.92 292.96 1962.4 286.69 1951.31 278.8C1940.2 270.93 1931.35 260.83 1924.74 248.53C1918.12 236.25 1914.82 221.05 1914.82 202.96C1914.82 183.48 1919.65 167.12 1929.34 153.91C1939.01 140.69 1951.31 130.01 1966.18 121.89C1981.06 113.78 1997.59 108.09 2015.78 104.85C2033.96 101.61 2051.32 99.9697 2067.86 99.9697C2086.75 99.9697 2104.81 101.95 2122.06 105.88C2139.3 109.83 2154.88 116.22 2168.82 125.02C2182.75 133.83 2194.33 145.32 2203.53 159.47C2205.83 163 2207.92 166.73 2209.8 170.63C2215.43 182.33 2219.12 195.66 2220.9 210.61H2136.59C2132.81 191.6 2123.94 178.85 2110.02 172.34C2096.08 165.85 2080.14 162.6 2062.19 162.6C2056.52 162.6 2049.8 163.07 2042 164C2034.2 164.94 2026.87 166.67 2020.03 169.22C2013.18 171.77 2007.39 175.49 2002.67 180.35C1997.94 185.23 1995.59 191.61 1995.59 199.49C1995.59 209.23 1999.01 217.12 2005.86 223.14C2012.71 229.18 2021.68 234.16 2032.78 238.1C2043.88 242.05 2056.52 245.41 2070.69 248.19C2084.86 250.98 2099.5 254 2114.62 257.24C2129.26 260.49 2143.66 264.44 2157.85 269.07C2172.02 273.72 2184.64 279.97 2195.75 287.85C2206.85 295.75 2215.83 305.72 2222.68 317.78C2229.52 329.85 2232.96 344.69 2232.96 362.3C2232.96 383.65 2227.99 401.74 2218.08 416.58C2208.16 431.43 2195.29 443.48 2179.46 452.76C2163.64 462.05 2146.04 468.76 2126.68 472.94C2107.31 477.11 2088.18 479.2 2069.29 479.2C2046.13 479.2 2024.76 476.65 2005.17 471.55C1985.56 466.46 1968.56 458.68 1954.15 448.24C1939.74 437.79 1928.4 424.81 1920.15 409.27C1911.88 393.74 1907.5 375.3 1907.04 353.95H1987.81V353.94Z" fill="white"/>
<path d="M2203.65 109.72H2278.33V0.209961H2359.09V109.72H2432.07V168.86H2359.09V360.9C2359.09 369.25 2359.46 376.45 2360.16 382.47C2360.86 388.51 2362.52 393.61 2365.11 397.78C2367.71 401.95 2371.6 405.08 2376.81 407.18C2382 409.26 2389.09 410.31 2398.07 410.31C2403.73 410.31 2409.4 410.2 2415.07 409.97C2420.74 409.74 2426.41 408.92 2432.08 407.53V468.76C2423.09 469.68 2414.37 470.6 2405.87 471.54C2397.36 472.46 2388.62 472.94 2379.65 472.94C2358.39 472.94 2341.27 470.96 2328.28 467.03C2315.28 463.1 2305.14 457.28 2297.82 449.63C2290.49 441.97 2285.52 432.35 2282.94 420.75C2280.34 409.17 2278.8 395.94 2278.34 381.09V168.88H2234.94L2203.66 109.74L2203.65 109.72Z" fill="white"/>
<path d="M2770.14 469.44H2690.78V419.35H2689.37C2679.45 437.43 2664.67 451.94 2645.08 462.83C2625.47 473.72 2605.51 479.18 2585.21 479.18C2537.03 479.18 2502.19 467.47 2480.7 444.05C2459.21 420.62 2448.46 385.25 2448.46 337.94V109.72H2529.23V330.29C2529.23 361.83 2535.37 384.1 2547.65 397.08C2559.93 410.08 2577.17 416.56 2599.38 416.56C2616.38 416.56 2630.55 414.02 2641.89 408.91C2653.23 403.81 2662.44 396.98 2669.53 388.38C2676.61 379.8 2681.68 369.49 2684.75 357.42C2687.82 345.37 2689.37 332.37 2689.37 318.45V109.72H2770.14V469.45V469.44Z" fill="white"/>
<path d="M3153.61 469.44H3077.08V420.73H3075.66C3064.8 441.6 3048.97 456.57 3028.2 465.61C3007.41 474.66 2985.44 479.18 2962.31 479.18C2933.49 479.18 2908.33 474.2 2886.85 464.22C2865.35 454.25 2847.53 440.68 2833.36 423.52C2819.19 406.36 2808.55 386.06 2801.47 362.64C2794.39 339.21 2790.84 314.05 2790.84 287.15C2790.84 254.68 2795.33 226.61 2804.31 202.95C2813.28 179.3 2825.22 159.82 2840.08 144.51C2854.96 129.21 2871.97 117.96 2891.1 110.77C2910.24 103.58 2929.72 99.9797 2949.55 99.9797C2960.89 99.9797 2972.46 101.03 2984.27 103.11C2996.07 105.2 3007.41 108.57 3018.28 113.2C3029.13 117.85 3039.18 123.75 3048.38 130.94C3057.59 138.14 3065.26 146.6 3071.4 156.34H3072.82V0.219727H3153.59V469.45L3153.61 469.44ZM2871.62 293.41C2871.62 308.71 2873.62 323.8 2877.64 338.64C2881.64 353.5 2887.79 366.71 2896.06 378.3C2904.32 389.89 2914.83 399.17 2927.59 406.13C2940.34 413.08 2955.45 416.56 2972.93 416.56C2990.41 416.56 3006.35 412.86 3019.34 405.43C3032.32 398.01 3042.96 388.27 3051.23 376.21C3059.49 364.15 3065.64 350.58 3069.65 335.5C3073.66 320.43 3075.67 305.01 3075.67 289.23C3075.67 249.34 3066.57 218.26 3048.39 195.99C3030.2 173.73 3005.52 162.59 2974.35 162.59C2955.45 162.59 2939.51 166.42 2926.52 174.07C2913.52 181.73 2902.9 191.71 2894.64 203.99C2886.37 216.29 2880.47 230.2 2876.92 245.74C2873.39 261.28 2871.62 277.16 2871.62 293.4" fill="white"/>
<path d="M3177.95 469.35H3258.72V106.78H3177.95V469.35ZM3177.95 77.66H3258.72V0H3177.95V77.66Z" fill="white"/>
<path d="M999.821 289.46C999.771 258.59 1011.96 229.54 1034.16 207.68C1056.36 185.81 1085.89 173.74 1117.33 173.69C1148.77 173.63 1178.35 185.62 1200.61 207.41C1222.88 229.2 1235.17 258.21 1235.22 289.08C1235.27 319.95 1223.07 349 1200.88 370.86C1178.69 392.73 1149.15 404.8 1117.71 404.85C1086.27 404.91 1056.7 392.92 1034.43 371.13C1012.17 349.33 999.881 320.33 999.821 289.46ZM924.15 289.58C924.32 394.46 1011.04 479.35 1117.84 479.17C1224.64 479 1311.07 393.84 1310.9 288.97C1310.73 184.09 1224.01 99.2002 1117.22 99.3802C1010.42 99.5502 923.98 184.71 924.15 289.58Z" fill="white"/>
<path d="M3355.32 289.46C3355.26 258.58 3367.47 229.53 3389.67 207.66C3411.87 185.79 3441.4 173.72 3472.85 173.67C3504.29 173.61 3533.88 185.6 3556.14 207.4C3578.42 229.2 3590.71 258.2 3590.76 289.08C3590.81 319.96 3578.61 349.01 3556.41 370.88C3534.21 392.75 3504.67 404.82 3473.23 404.87C3441.79 404.92 3412.21 392.94 3389.94 371.14C3367.66 349.34 3355.37 320.34 3355.32 289.46ZM3279.63 289.58C3279.8 394.48 3366.53 479.38 3473.35 479.21C3580.17 479.04 3666.62 393.87 3666.45 288.97C3666.28 184.07 3579.55 99.1701 3472.73 99.3401C3365.91 99.5101 3279.46 184.68 3279.63 289.58Z" fill="white"/>
<path d="M3736.79 69.6201C3736.79 47.4201 3718.46 29.4102 3695.85 29.4102C3673.24 29.4102 3654.9 47.4201 3654.9 69.6201C3654.9 91.8201 3673.23 109.83 3695.85 109.83C3718.47 109.83 3736.79 91.8201 3736.79 69.6201Z" fill="white"/>
</svg>
