<?xml version="1.0" encoding="utf-8"?>
<svg version="1.1" id="Layer_1" xmlns="http://www.w3.org/2000/svg" xmlns:xlink="http://www.w3.org/1999/xlink" x="0px" y="0px"
	 viewBox="0 0 24 24" style="enable-background:new 0 0 24 24;" xml:space="preserve">
<style type="text/css">
	.st0{fill-rule:evenodd;clip-rule:evenodd;}
</style>
<path class="st0" d="M11.5,0c-0.2,0.1-0.4,0.2-0.5,0.4c-0.1,0.2-0.1,0.7-0.1,5.3l0,5.1l-4.9,0c-2.7,0-5.1,0-5.2,0.1
	C0.2,11,0,11.3,0,12c0,0.7,0.2,1,0.7,1.1c0.1,0,2.5,0,5.2,0.1l4.9,0l0,4.9c0,2.7,0,5.1,0.1,5.2C11,23.8,11.3,24,12,24
	c0.7,0,1-0.2,1.1-0.7c0-0.1,0-2.5,0.1-5.2l0-4.9l4.9,0c2.7,0,5.1,0,5.2-0.1C23.8,13,24,12.7,24,12c0-0.7-0.2-1-0.7-1.1
	c-0.1,0-2.5,0-5.2-0.1l-4.9,0l0-4.9c0-2.7,0-5.1-0.1-5.2c-0.1-0.3-0.2-0.5-0.4-0.6C12.4,0,11.7,0,11.5,0"/>
</svg>
